<?xml version="1.0" standalone="no"?>
<!DOCTYPE svg PUBLIC "-//W3C//DTD SVG 20010904//EN"
 "http://www.w3.org/TR/2001/REC-SVG-20010904/DTD/svg10.dtd">
<svg version="1.0" xmlns="http://www.w3.org/2000/svg"
 width="512.000000pt" height="512.000000pt" viewBox="0 0 512.000000 512.000000"
 preserveAspectRatio="xMidYMid meet">

<g transform="translate(0.000000,512.000000) scale(0.100000,-0.100000)"
fill="#000000" stroke="none">
<path d="M2605 4966 c-128 -29 -262 -113 -332 -206 l-37 -50 -126 0 c-209 0
-333 -41 -436 -144 -155 -156 -160 -364 -13 -518 l59 -63 0 -543 c0 -603 3
-634 65 -768 50 -109 109 -190 218 -297 l99 -99 -38 -39 c-47 -49 -94 -63
-259 -78 -359 -32 -608 -172 -726 -406 l-30 -60 -432 -5 c-389 -5 -436 -7
-468 -23 -83 -41 -138 -123 -146 -218 -9 -96 53 -200 146 -246 28 -14 66 -19
169 -21 l132 -4 32 -61 c51 -103 125 -201 218 -291 l89 -86 -58 0 c-77 0 -155
-39 -196 -98 -29 -43 -30 -47 -33 -184 -3 -97 0 -150 9 -172 22 -54 59 -94
112 -121 51 -25 53 -25 308 -25 230 0 259 2 278 18 32 25 38 81 13 112 l-20
25 -256 3 -255 3 -21 26 c-16 21 -20 40 -20 109 0 97 12 129 53 144 20 6 263
10 718 10 l687 0 11 -31 c14 -39 14 -199 1 -233 l-9 -25 -321 -3 -322 -3 -19
-24 c-26 -32 -24 -77 6 -106 l24 -25 422 0 c454 0 472 2 534 52 55 46 78 99
83 196 l5 82 875 -2 875 -3 12 -48 c17 -69 61 -125 125 -161 54 -31 56 -31
195 -30 121 0 148 3 198 23 110 43 195 132 234 245 15 43 18 85 18 276 0 211
-2 229 -24 283 -31 78 -115 167 -193 207 -34 16 -69 30 -80 30 -17 0 -18 22
-18 534 l0 533 83 5 c127 7 212 60 268 168 l24 45 0 406 0 405 -30 59 c-35 69
-103 126 -174 147 -32 9 -110 13 -256 13 -198 0 -213 -1 -260 -23 -63 -29
-119 -83 -153 -147 l-27 -50 0 -400 0 -400 28 -57 c52 -106 137 -159 265 -166
l82 -5 0 -528 0 -529 -63 0 -62 0 -47 191 c-51 210 -87 298 -160 386 -142 171
-361 261 -711 292 -117 10 -180 36 -214 87 -16 25 -16 25 55 90 133 121 241
290 288 449 16 54 18 121 21 626 l4 566 55 57 c81 83 109 149 109 256 0 76 -4
93 -32 151 -61 123 -182 215 -320 244 -39 8 -124 15 -198 15 l-130 0 -23 41
c-53 92 -139 161 -248 200 -76 27 -226 34 -309 15z m267 -161 c70 -24 145 -97
178 -171 15 -33 35 -64 45 -68 9 -3 86 -6 170 -6 85 0 178 -5 207 -11 144 -31
241 -130 241 -248 0 -73 -18 -107 -98 -177 l-65 -58 0 -244 0 -244 -25 6
c-112 28 -486 76 -594 76 -52 0 -62 -3 -80 -26 -27 -35 -27 -69 2 -97 19 -20
40 -24 176 -36 85 -7 159 -15 166 -17 7 -3 15 -30 18 -61 14 -132 117 -264
258 -330 l81 -38 -7 -88 c-12 -178 -75 -313 -214 -459 -227 -239 -558 -361
-786 -288 -312 99 -608 380 -660 628 -8 37 -15 100 -15 140 0 70 1 73 28 83
75 28 123 60 183 119 73 73 105 133 123 230 l12 65 65 7 c35 4 117 11 181 16
130 10 158 23 158 73 0 74 -30 87 -177 77 -174 -11 -442 -48 -550 -75 l-23 -5
0 241 c0 273 11 234 -88 323 -55 50 -73 89 -73 153 0 95 64 180 176 232 57 26
69 27 230 31 94 1 180 5 191 7 12 3 36 27 53 54 111 173 326 251 513 186z
m-828 -1382 c-10 -47 -57 -116 -102 -150 -24 -18 -48 -33 -53 -33 -5 0 -9 40
-9 90 0 85 1 90 23 95 141 33 149 33 141 -2z m1366 -23 c0 -27 -2 -50 -6 -50
-7 0 -34 66 -34 85 0 8 9 15 20 15 17 0 20 -7 20 -50z m1491 27 c68 -45 69
-51 69 -442 0 -325 -2 -353 -20 -393 -32 -71 -68 -82 -284 -82 -203 0 -244 10
-281 72 -19 31 -20 52 -20 398 0 406 1 409 68 450 29 18 51 20 233 20 192 0
203 -1 235 -23z m-2611 -1263 c73 -42 199 -91 284 -109 145 -32 325 -1 515 91
l94 45 44 -43 44 -43 -42 -38 c-157 -140 -529 -194 -808 -117 -84 24 -191 76
-241 118 l-34 29 39 46 c22 26 45 46 50 47 6 0 30 -12 55 -26z m-320 -309 l0
-165 -95 0 -95 0 0 159 0 160 38 4 c20 2 63 4 95 5 l57 2 0 -165z m1672 149
c4 -3 8 -108 8 -235 l0 -229 -100 0 -100 0 0 241 1 242 91 -7 c50 -4 95 -9
100 -12z m-2022 -169 l0 -145 -201 0 -200 0 23 41 c28 51 108 126 173 164 37
22 169 77 203 84 1 1 2 -64 2 -144z m1680 -105 l0 -190 -180 0 -180 0 -26 39
c-27 41 -79 83 -127 100 -18 7 -148 11 -348 11 l-319 0 0 111 c0 61 3 109 8
107 4 -2 35 -18 69 -35 293 -153 749 -150 1028 6 39 22 71 40 73 40 1 1 2 -84
2 -189z m607 -13 c71 -68 116 -132 144 -208 42 -110 101 -443 114 -644 3 -49
8 -125 11 -167 l5 -78 -60 0 c-34 0 -61 3 -61 7 0 29 -124 717 -135 752 -18
55 -57 107 -96 126 l-29 16 0 140 0 140 23 -12 c12 -7 50 -39 84 -72z m-3534
-214 c-2 -21 2 -68 10 -105 l14 -68 -79 0 c-91 0 -130 15 -153 60 -19 36 -19
53 0 90 23 44 60 59 142 60 l71 0 -5 -37z m1821 -33 c-2 -220 -212 -561 -429
-699 l-49 -31 -307 0 -308 0 -77 40 c-219 113 -377 300 -460 542 -31 91 -42
182 -24 203 11 13 107 15 834 13 l821 -3 -1 -65z m556 55 c36 -18 52 -47 52
-90 0 -77 -44 -105 -163 -105 -73 0 -80 2 -74 18 4 9 10 56 13 105 l4 87 70 0
c42 0 80 -6 98 -15z m1016 -170 c14 -21 133 -659 134 -717 0 -17 -40 -18 -702
-18 l-701 0 -35 41 c-52 61 -99 79 -206 79 l-88 0 71 66 c87 81 182 205 229
301 l36 73 126 0 c110 0 131 3 175 24 58 26 117 88 136 140 l13 36 398 0 398
0 16 -25z m1019 -240 c106 -66 130 -145 123 -400 -5 -166 -16 -205 -71 -264
-55 -58 -96 -71 -230 -71 -118 0 -119 0 -148 29 l-29 29 0 322 c0 200 4 329
10 340 22 41 58 50 181 48 109 -3 118 -5 164 -33z"/>
<path d="M2649 4470 l-30 -30 3 -201 c3 -197 3 -201 27 -220 30 -25 76 -24
101 1 19 19 20 33 20 229 l0 210 -26 20 c-36 29 -60 26 -95 -9z"/>
<path d="M2135 4315 c-25 -24 -25 -25 -25 -225 0 -200 0 -201 25 -225 13 -14
36 -25 50 -25 14 0 37 11 50 25 25 24 25 25 25 229 l0 205 -26 20 c-35 28 -69
26 -99 -4z"/>
<path d="M3162 4317 c-21 -22 -22 -32 -22 -229 l0 -207 26 -20 c30 -24 43 -26
78 -10 42 20 47 51 44 258 -3 189 -3 193 -27 212 -32 26 -73 24 -99 -4z"/>
<path d="M2290 3251 c-46 -15 -89 -41 -100 -60 -19 -36 -12 -78 16 -100 33
-26 61 -26 99 -1 40 26 113 26 165 0 49 -25 61 -25 94 1 28 22 35 64 16 100
-21 37 -89 62 -180 66 -47 1 -96 -1 -110 -6z"/>
<path d="M2886 3245 c-88 -31 -121 -101 -71 -150 29 -30 53 -31 102 -5 49 26
111 25 167 -2 38 -18 48 -20 74 -9 60 25 63 98 5 139 -59 42 -197 56 -277 27z"/>
<path d="M1194 3146 c-40 -41 -57 -68 -69 -111 -20 -69 -15 -104 31 -206 19
-42 34 -88 34 -102 0 -14 -15 -43 -35 -67 -51 -61 -45 -115 14 -139 42 -18 82
6 128 75 31 46 38 67 41 119 4 53 0 73 -23 122 -63 135 -63 157 -3 220 41 42
42 87 4 120 -41 35 -64 29 -122 -31z"/>
<path d="M779 2749 c-92 -100 -104 -183 -45 -320 20 -47 36 -96 36 -109 0 -14
-16 -45 -35 -69 -41 -52 -44 -83 -10 -116 38 -39 75 -33 124 21 84 90 94 176
36 304 -43 95 -44 129 -6 172 56 66 62 112 18 143 -39 27 -77 19 -118 -26z"/>
</g>
</svg>
